<?xml version="1.0" encoding="UTF-8" standalone="no"?>
<svg
   xmlns:dc="http://purl.org/dc/elements/1.1/"
   xmlns:cc="http://creativecommons.org/ns#"
   xmlns:rdf="http://www.w3.org/1999/02/22-rdf-syntax-ns#"
   xmlns:svg="http://www.w3.org/2000/svg"
   xmlns="http://www.w3.org/2000/svg"
   id="Layer_1"
   data-name="Layer 1"
   width="181"
   height="46"
   viewBox="0 0 181 45.999999"
   version="1.1">
  <metadata
     id="metadata63">
    <rdf:RDF>
      <cc:Work
         rdf:about="">
        <dc:format>image/svg+xml</dc:format>
        <dc:type
           rdf:resource="http://purl.org/dc/dcmitype/StillImage" />
        <dc:title>Sberbank</dc:title>
      </cc:Work>
    </rdf:RDF>
  </metadata>
  <defs
     id="defs61" />
  <title
     id="title2">Sberbank</title>
  <g
     id="g38"
     transform="matrix(0.36100794,0,0,0.36100794,8.0422605e-6,8.0181705)">
    <path
       id="path4"
       style="fill:#0d4b9f"
       d="M 57.81,31.91 V 31.82 A 5.13,5.13 0 0 0 61.54,26.48 C 61.54,22.54 58.34,20.73 53.83,20.73 H 46.18 V 30.16 H 41.68 C 35.68,30.16 34.38,34.4 34.38,36.71 34.38,40 36.28,41.46 39.78,43.2 41.91,44.27 44.46,44.92 44.46,47.36 44.46,48.63 43.28,50.17 40.73,50.17 H 36 A 7.41,7.41 0 0 0 37,46.47 C 37,44.96 36.47,38.91 28,38.91 H 21.15 V 62.24 H 25.84 V 52.07 L 27.74,53.97 H 40.55 C 46.55,53.97 49.38,50.89 49.38,47.21 A 7.14,7.14 0 0 0 48.73,44.01 H 53.54 C 60.95,44.01 62.67,40.33 62.67,37.45 A 5.41,5.41 0 0 0 57.81,31.91 Z M 28,50.17 H 25.84 V 42.55 H 28 C 30.73,42.55 32,44.21 32,46.23 A 3.74,3.74 0 0 1 28,50.17 Z M 46.18,35.7 V 41.36 A 34.33,34.33 0 0 0 42.39,39.56 C 40.9,38.91 39.31,38.08 39.31,36.2 39.31,35.2 39.9,33.83 42.75,33.83 H 48 Z M 50.86,24.38 H 53 C 56.62,24.38 56.8,26.6 56.8,27.28 56.8,28.28 56.26,30.16 53.18,30.16 H 50.86 Z M 53.54,40.38 H 50.86 V 33.88 H 53.54 C 56.8,33.88 57.69,35.46 57.69,37.12 57.69,38.78 56.5,40.33 53.54,40.33 Z" />
    <path
       id="path6"
       style="fill:#0d4b9f"
       d="M 83,20.2 A 20.2,20.2 0 0 0 62.83,0 H 34.29 A 20.21,20.21 0 0 0 14.84,14.79 H 49.34 C 62.61,14.79 68.25,20.96 68.25,35.45 V 68.19 A 20.27,20.27 0 0 0 83,48.75 Z" />
    <path
       id="path8"
       style="fill:#f16522"
       d="M 0,62.77 A 20.2,20.2 0 0 0 20.2,83 H 48.74 A 20.2,20.2 0 0 0 68.19,68.19 H 33.69 C 20.42,68.19 14.79,62.01 14.79,47.53 V 14.79 A 20.25,20.25 0 0 0 0,34.23 Z" />
    <g
       id="g36">
      <polygon
         id="polygon10"
         style="fill:#0d4b9f;fill-rule:evenodd"
         points="458.73,48.78 449.28,48.78 449.28,62.19 440.57,62.19 440.57,32.13 449.28,32.13 449.28,43.29 458.73,43.29 458.73,32.13 467.32,32.13 467.32,62.19 458.73,62.19 " />
      <path
         id="path12"
         style="fill:#0d4b9f;fill-rule:evenodd"
         d="M 428,57.43 V 46.75 C 424.34,47.24 419,47.88 419,53.11 419,59.52 425.9,58.33 428,57.43 Z M 411,53.6 C 411,49.48 413.15,46.43 417.27,44.84 A 30.73,30.73 0 0 1 422.27,43.47 C 423.72,43.21 425.63,42.98 427.95,42.65 V 41.7 C 428.13,37.35 425.63,36.54 422.56,36.54 A 17.9,17.9 0 0 0 414.31,38.8 L 413.74,33.4 A 31.8,31.8 0 0 1 424.59,31.49 17.6,17.6 0 0 1 430.51,32.3 7.49,7.49 0 0 1 436,38.88 20.34,20.34 0 0 1 436.12,41.94 V 60.65 C 428.58,63.55 411.05,65.49 411.05,53.65 Z" />
      <path
         id="path14"
         style="fill:#0d4b9f;fill-rule:evenodd"
         d="M 398.09,56.41 A 4.07,4.07 0 0 1 394.55,58.15 C 389.55,58.15 388.39,49.97 388.39,46.29 388.39,43.21 389.04,39.99 390.78,37.99 A 4.3,4.3 0 0 1 394.37,36.39 C 396.37,36.39 398.09,37.58 398.96,39.99 A 20.33,20.33 0 0 1 400.24,47.64 C 400.24,50.78 399.77,54.07 398.09,56.41 Z M 408.53,40.41 A 12.84,12.84 0 0 0 404.76,34.24 C 401.76,31.42 391.36,29.1 386.3,36.64 386.3,28.69 389.67,24.78 396.41,23.64 403.15,22.5 406.85,21.87 406.85,21.87 L 406.21,15.43 C 406.21,15.43 399.31,16.43 393.62,17.7 387.47,19.14 381.54,23.64 380.09,32.64 379.09,38.5 379.23,48.64 380.96,53.36 382.96,58.81 387.06,62.93 394.49,62.93 404.7,62.93 409.4,56.67 409.4,46.85 A 27.63,27.63 0 0 0 408.53,40.41 Z" />
      <polygon
         id="polygon16"
         style="fill:#0d4b9f;fill-rule:evenodd"
         points="480.9,47.24 480.9,62.19 472.31,62.19 472.31,32.13 480.9,32.13 480.9,45.97 490.54,32.13 499.01,32.13 489.2,45.56 500,62.19 490.42,62.19 " />
      <path
         id="path18"
         style="fill:#0d4b9f;fill-rule:evenodd"
         d="M 335.35,62.83 A 23.53,23.53 0 0 1 327.17,61.63 L 327.86,56.41 A 11.69,11.69 0 0 0 334.13,58.15 C 338.49,58.15 340.86,56.15 340.75,53.34 A 3.72,3.72 0 0 0 339.41,50.2 4.78,4.78 0 0 0 336.41,49.02 C 335.24,48.93 334.32,48.84 333.51,48.84 H 331.41 V 44.34 H 332 C 335.19,44.34 340.18,44.2 340.18,40.08 340.24,36.89 336.87,36.15 335.18,36.15 A 14.8,14.8 0 0 0 327.86,38.07 L 327.4,33.07 A 25.53,25.53 0 0 1 337,31.4 C 344,31.25 348.31,34.4 348.14,39.11 348.25,42.98 344.95,45.24 342.62,45.96 A 10.46,10.46 0 0 1 346.46,47.39 6.87,6.87 0 0 1 349.36,53.2 8.46,8.46 0 0 1 344.25,61.14 21.73,21.73 0 0 1 335.31,62.83 Z" />
      <path
         id="path20"
         style="fill:#0d4b9f;fill-rule:evenodd"
         d="M 258,62.83 C 248.08,62.83 242.57,56.83 242.57,47.01 242.57,37.19 248.42,31.4 258.1,31.4 A 19,19 0 0 1 265.19,32.62 L 264.26,38.07 A 10.14,10.14 0 0 0 259.5,36.79 C 253.69,36.79 251.2,41.53 251.2,46.79 251.2,52.05 253.64,57.38 259.55,57.38 A 9.81,9.81 0 0 0 264.37,56.19 L 265.01,61.73 A 20.31,20.31 0 0 1 258.01,62.87 Z" />
      <path
         id="path22"
         style="fill:#0d4b9f;fill-rule:evenodd"
         d="M 353.11,62.19 V 32.13 H 361.64 V 41.61 C 363.44,41.53 364.64,41.53 365.06,41.53 369.01,41.53 371.97,42.17 373.77,43.53 A 9.2,9.2 0 0 1 377.25,51.16 C 377,61 367.09,62.83 361.7,62.83 A 45.12,45.12 0 0 1 353.11,62.19 Z M 361.64,57.34 C 361.64,57.34 369.42,58.97 369.42,51.57 A 5.12,5.12 0 0 0 368.66,48.46 C 367.79,46.93 365.82,46.66 363.73,46.66 H 362.51 A 4.27,4.27 0 0 0 361.64,46.75 Z" />
      <path
         id="path24"
         style="fill:#0d4b9f;fill-rule:evenodd"
         d="M 278.07,44.66 V 36.39 C 278.07,36.39 278.94,36.3 281.07,36.3 285.19,36.3 286,38.71 286,40.3 286,43.3 284.2,44.71 280,44.71 Z M 280.22,49.33 C 281.03,49.33 281.9,49.33 282.95,49.42 A 4.41,4.41 0 0 1 285.67,50.42 3.35,3.35 0 0 1 286.89,53.42 C 286.89,56.73 283.99,57.91 280.22,57.91 279.17,57.91 278.07,57.85 278.07,57.85 V 49.33 Z M 288.75,46.19 C 292.35,45.07 294.15,42.81 294.15,39.38 A 7.07,7.07 0 0 0 293.15,35.57 6.75,6.75 0 0 0 289.84,32.94 C 287.12,31.72 283.34,31.4 280.03,31.4 A 63.64,63.64 0 0 0 269.7,32.13 V 62.19 A 76.52,76.52 0 0 0 280.03,62.83 C 286.03,62.83 295.24,61.32 295.48,53.66 V 53.34 C 295.65,50.06 293.56,46.83 288.74,46.19 Z" />
      <path
         id="path26"
         style="fill:#0d4b9f;fill-rule:evenodd"
         d="M 314.28,45.15 H 312.14 C 308.01,45.15 306.33,43.79 306.33,40.39 306.33,36.99 309,36.15 311.15,36.15 A 24.58,24.58 0 0 1 314.28,36.3 Z M 312.37,31.4 C 306.04,31.4 298.15,32.45 298.15,40.56 298.15,44.84 300.24,47.47 304.41,48.56 L 296.35,62.14 H 305.29 L 311.73,50.14 H 314.28 V 62.14 H 322.76 V 32.13 A 65.72,65.72 0 0 0 312.37,31.4 Z" />
      <polygon
         id="polygon28"
         style="fill:#0d4b9f;fill-rule:evenodd"
         points="103.79,20.72 135.37,20.72 135.37,62.19 126.19,62.19 126.19,26.59 113.02,26.59 113.02,62.19 103.79,62.19 " />
      <path
         id="path30"
         style="fill:#0d4b9f;fill-rule:evenodd"
         d="M 159.85,46.11 C 159.85,34.86 152.02,35.84 149.11,36.54 V 56.15 C 150.28,56.41 159.85,60.15 159.85,46.15 Z M 140.42,74.32 V 32.94 C 147.95,31.4 168.42,27.16 168.42,45.48 168.42,50.29 167.14,54.48 164.64,57.34 159.77,63.23 151.76,62.59 149.14,61.55 V 74.32 Z" />
      <path
         id="path32"
         style="fill:#0d4b9f;fill-rule:evenodd"
         d="M 186.32,58.09 C 188.82,58.09 190.5,56.09 191.19,53.43 A 27,27 0 0 0 191.95,46.75 19.66,19.66 0 0 0 190.79,39.52 4.89,4.89 0 0 0 186.32,36.15 C 183.82,36.15 182.03,37.93 181.32,40.39 A 20.13,20.13 0 0 0 180.32,46.75 C 180.32,50.47 181.19,58.09 186.32,58.09 Z M 185.68,62.83 C 175.76,62.83 171.46,56.56 171.46,47.16 171.46,37.43 176.57,31.4 186.55,31.4 A 14,14 0 0 1 195.14,33.84 10.89,10.89 0 0 1 199.37,39.84 23.37,23.37 0 0 1 200.48,46.93 C 200.48,57.05 196.18,62.83 185.68,62.83 Z" />
      <polygon
         id="polygon34"
         style="fill:#0d4b9f;fill-rule:evenodd"
         points="224.39,62.19 217.48,62.19 210.87,40.39 209.18,62.19 202.28,62.19 205.41,32.13 215.39,32.13 221.6,52.61 227.75,32.13 237.62,32.13 240.52,62.19 232.57,62.19 230.89,40.56 " />
    </g>
  </g>
</svg>
