<?xml version="1.0" encoding="UTF-8" standalone="no"?>
<svg
   xmlns:dc="http://purl.org/dc/elements/1.1/"
   xmlns:cc="http://creativecommons.org/ns#"
   xmlns:rdf="http://www.w3.org/1999/02/22-rdf-syntax-ns#"
   xmlns:svg="http://www.w3.org/2000/svg"
   xmlns="http://www.w3.org/2000/svg"
   xmlns:sodipodi="http://sodipodi.sourceforge.net/DTD/sodipodi-0.dtd"
   xmlns:inkscape="http://www.inkscape.org/namespaces/inkscape"
   id="Layer_1"
   data-name="Layer 1"
   width="240"
   height="78"
   viewBox="0 0 240 77.999998"
   version="1.1"
   sodipodi:docname="new-header-logo-ep.svg"
   inkscape:version="0.92.4 (5da689c313, 2019-01-14)">
  <metadata
     id="metadata49">
    <rdf:RDF>
      <cc:Work
         rdf:about="">
        <dc:format>image/svg+xml</dc:format>
        <dc:type
           rdf:resource="http://purl.org/dc/dcmitype/StillImage" />
        <dc:title>Artboard 1</dc:title>
      </cc:Work>
    </rdf:RDF>
  </metadata>
  <defs
     id="defs47" />
  <sodipodi:namedview
     pagecolor="#ffffff"
     bordercolor="#666666"
     borderopacity="1"
     objecttolerance="10"
     gridtolerance="10"
     guidetolerance="10"
     inkscape:pageopacity="0"
     inkscape:pageshadow="2"
     inkscape:window-width="1366"
     inkscape:window-height="715"
     id="namedview45"
     showgrid="false"
     inkscape:zoom="2.9576588"
     inkscape:cx="120.51967"
     inkscape:cy="37.547128"
     inkscape:window-x="-8"
     inkscape:window-y="-8"
     inkscape:window-maximized="1"
     inkscape:current-layer="Layer_1" />
  <title
     id="title2">Artboard 1</title>
  <g
     id="g71"
     transform="translate(0,-7.8532505)">
    <path
       style="fill:#1d1d1b;stroke-width:2.63843703"
       inkscape:connector-curvature="0"
       id="path4"
       d="M 81.474933,37.658298 H 72.979167 V 15.706502 H 81.474933 V 18.081095 H 75.643989 V 25.442334 H 80.657019 V 27.816928 H 75.643989 V 35.25732 H 81.474933 Z" />
    <path
       style="fill:#1d1d1b;stroke-width:2.63843703"
       inkscape:connector-curvature="0"
       id="path6"
       d="M 87.358648,37.658298 H 84.720211 V 21.669369 H 87.358648 Z M 94.825425,37.658298 H 92.028682 L 87.358648,29.347221 91.632916,21.669369 H 94.271353 L 89.997085,29.241684 Z" />
    <path
       style="fill:#1d1d1b;stroke-width:2.63843703"
       inkscape:connector-curvature="0"
       id="path8"
       d="M 105.1681,37.658298 H 102.89904 V 36.233541 A 4.0368086,4.0368086 0 0 1 101.97559,37.315301 2.928665,2.928665 0 0 1 100.1023,37.895757 3.3244306,3.3244306 0 0 1 98.59839,37.605529 3.5618899,3.5618899 0 0 1 97.252787,36.813998 5.2768739,5.2768739 0 0 1 96.25018,33.252107 4.5117272,4.5117272 0 0 1 96.54041,31.299665 4.8283398,4.8283398 0 0 1 97.595783,29.637449 4.9866459,4.9866459 0 0 1 100.99937,28.582074 H 102.6352 V 25.943637 C 102.6352,24.413344 102.00197,23.648196 100.76191,23.648196 A 1.9524434,1.9524434 0 0 0 100.1023,23.648196 2.1107496,2.1107496 0 0 0 99.548227,24.043962 2.638437,2.638437 0 0 0 98.967772,25.917253 H 96.461256 A 4.6964178,4.6964178 0 0 1 96.7251,24.096731 4.4325741,4.4325741 0 0 1 97.701321,22.513669 4.8019553,4.8019553 0 0 1 103.90165,22.513669 4.8811084,4.8811084 0 0 1 105.14171,26.022791 Z M 102.52966,33.225723 V 30.24429 H 101.13129 A 2.638437,2.638437 0 0 0 99.337152,30.851131 3.0078181,3.0078181 0 0 0 98.730313,31.853735 2.4801308,2.4801308 0 0 0 98.730313,33.014648 C 98.730313,34.808785 99.363537,35.653085 100.65637,35.653085 A 2.0579808,2.0579808 0 0 0 101.47429,35.494779 1.7941371,1.7941371 0 0 0 102.10751,34.967092 2.7967432,2.7967432 0 0 0 102.66158,33.225723 Z" />
    <path
       style="fill:#1d1d1b;stroke-width:2.63843703"
       inkscape:connector-curvature="0"
       id="path10"
       d="M 115.93292,23.912041 H 112.87233 V 37.658298 H 110.2339 V 23.912041 H 107.33162 V 21.669369 H 115.93292 Z" />
    <path
       style="fill:#1d1d1b;stroke-width:2.63843703"
       inkscape:connector-curvature="0"
       id="path12"
       d="M 126.9352,30.24429 H 120.41826 A 10.105214,10.105214 0 0 0 121.05149,34.967092 1.5302934,1.5302934 0 0 0 121.68471,35.494779 1.3719872,1.3719872 0 0 0 122.47624,35.653085 2.0315965,2.0315965 0 0 0 123.26778,35.494779 1.8205215,1.8205215 0 0 0 124.00654,35.019861 2.638437,2.638437 0 0 0 124.53423,33.172955 H 127.17266 A 5.2768739,5.2768739 0 0 1 125.61598,36.813998 4.8019553,4.8019553 0 0 1 122.44986,38.001294 4.8811084,4.8811084 0 0 1 119.31012,36.761229 4.9866459,4.9866459 0 0 1 118.17559,34.122792 27.941047,27.941047 0 0 1 117.88537,29.663834 28.125739,28.125739 0 0 1 118.17559,25.204875 4.5908803,4.5908803 0 0 1 119.28374,22.566438 4.6700334,4.6700334 0 0 1 125.56322,22.566438 4.7491865,4.7491865 0 0 1 126.64498,25.204875 30.97525,30.97525 0 0 1 126.9352,30.138752 Z M 124.29677,28.397384 A 7.9153109,7.9153109 0 0 0 123.68993,24.360575 1.8996746,1.8996746 0 0 0 123.0567,23.859272 2.0315965,2.0315965 0 0 0 122.26517,23.700965 1.8996746,1.8996746 0 0 0 121.50002,23.859272 1.5830622,1.5830622 0 0 0 120.89318,24.360575 7.5723141,7.5723141 0 0 0 120.25996,28.397384 Z" />
    <path
       style="fill:#1d1d1b;stroke-width:2.63843703"
       inkscape:connector-curvature="0"
       id="path14"
       d="M 138.88732,25.020185 A 34.589909,34.589909 0 0 1 139.0984,29.690218 34.009452,34.009452 0 0 1 138.88732,34.333867 4.6436491,4.6436491 0 0 1 137.96387,36.734844 3.4035837,3.4035837 0 0 1 135.90589,37.895757 3.4827368,3.4827368 0 0 1 133.55768,37.473608 3.8257336,3.8257336 0 0 1 132.63423,36.550154 V 43.647549 H 130.18048 V 21.669369 H 132.60784 V 22.909434 A 4.1687304,4.1687304 0 0 1 133.55768,21.933213 3.0342025,3.0342025 0 0 1 135.27266,21.43191 3.5882743,3.5882743 0 0 1 136.75019,21.722138 3.2980462,3.2980462 0 0 1 137.93749,22.619207 4.6700334,4.6700334 0 0 1 138.88732,25.020185 Z M 136.45996,33.410414 C 136.45996,32.671652 136.59188,31.431586 136.59188,29.690218 A 26.727367,26.727367 0 0 0 136.45996,25.970022 3.3244306,3.3244306 0 0 0 135.93227,24.334191 1.5302934,1.5302934 0 0 0 135.32543,23.859272 1.6885997,1.6885997 0 0 0 134.56029,23.621813 2.2162871,2.2162871 0 0 0 133.84791,23.621813 1.424756,1.424756 0 0 0 133.26745,24.017578 2.1107496,2.1107496 0 0 0 132.76615,24.861878 2.427362,2.427362 0 0 0 132.76615,25.838099 V 33.304876 A 2.638437,2.638437 0 0 0 132.76615,34.307482 2.427362,2.427362 0 0 0 133.26745,35.178167 1.6885997,1.6885997 0 0 0 133.84791,35.547548 1.714984,1.714984 0 0 0 134.56029,35.67947 1.8996746,1.8996746 0 0 0 135.32543,35.521164 1.7677528,1.7677528 0 0 0 135.90589,35.019861 3.2452775,3.2452775 0 0 0 136.43358,33.38403 Z" />
    <path
       style="fill:#1d1d1b;stroke-width:2.63843703"
       inkscape:connector-curvature="0"
       id="path16"
       d="M 151.49905,37.658298 H 148.86061 V 27.10455 L 144.61273,37.658298 H 142.4756 V 21.669369 H 144.98211 V 32.223117 L 149.25638,21.669369 H 151.52544 Z" />
    <path
       style="fill:#1d1d1b;stroke-width:2.63843703"
       inkscape:connector-curvature="0"
       id="path18"
       d="M 164.03163,37.658298 H 161.39319 V 30.587286 H 157.80492 V 37.658298 H 155.32478 V 21.669369 H 157.80492 V 28.344615 H 161.52511 V 21.669369 H 164.16355 Z" />
    <path
       style="fill:#1d1d1b;stroke-width:2.63843703"
       inkscape:connector-curvature="0"
       id="path20"
       d="M 176.93359,37.658298 H 174.29515 V 27.10455 L 170.10003,37.658298 H 167.77821 V 21.669369 H 170.25835 V 32.223117 L 174.559,21.669369 H 176.82804 Z" />
    <path
       style="fill:#1d1d1b;stroke-width:2.63843703"
       inkscape:connector-curvature="0"
       id="path22"
       d="M 189.43977,37.658298 H 186.95965 V 30.587286 H 183.29222 V 37.658298 H 180.65378 V 21.669369 H 183.29222 V 28.344615 H 186.95965 V 21.669369 H 189.43977 Z" />
    <path
       style="fill:#1d1d1b;stroke-width:2.63843703"
       inkscape:connector-curvature="0"
       id="path24"
       d="M 201.73489,33.172955 A 5.4615645,5.4615645 0 0 1 200.52121,36.813998 3.9840398,3.9840398 0 0 1 199.04369,37.684681 3.5882743,3.5882743 0 0 1 197.38147,37.922142 3.7465805,3.7465805 0 0 1 195.50818,37.605529 4.0631929,4.0631929 0 0 1 194.00428,36.444616 12.664498,12.664498 0 0 1 192.84337,29.690218 29.022807,29.022807 0 0 1 193.08082,25.41595 5.2768739,5.2768739 0 0 1 194.03066,22.93582 3.6674274,3.6674274 0 0 1 195.50818,21.801292 4.142346,4.142346 0 0 1 197.38147,21.458294 4.4589585,4.4589585 0 0 1 199.04369,21.695754 4.0895773,4.0895773 0 0 1 200.49482,22.566438 5.2768739,5.2768739 0 0 1 201.73489,26.26025 H 199.22837 A 2.638437,2.638437 0 0 0 198.72707,24.413344 1.3456029,1.3456029 0 0 0 198.09385,23.964809 1.4775247,1.4775247 0 0 0 197.35508,23.621813 1.3456029,1.3456029 0 0 0 196.56356,23.780119 1.5039091,1.5039091 0 0 0 195.93034,24.281422 3.13974,3.13974 0 0 0 195.42904,25.943637 C 195.42904,26.708784 195.42904,27.922466 195.42904,29.58468 A 32.004241,32.004241 0 0 0 195.42904,33.199338 3.1661244,3.1661244 0 0 0 195.93034,34.887939 1.5566778,1.5566778 0 0 0 196.56356,35.415626 1.926059,1.926059 0 0 0 197.35508,35.573933 1.8205215,1.8205215 0 0 0 198.09385,35.573933 1.7413684,1.7413684 0 0 0 198.7007,35.125398 2.8231276,2.8231276 0 0 0 199.22837,33.252107 Z" />
    <path
       style="fill:#1d1d1b;stroke-width:2.63843703"
       inkscape:connector-curvature="0"
       id="path26"
       d="M 207.32837,37.658298 H 204.68994 V 21.669369 H 207.32837 Z M 214.79515,37.658298 H 211.99841 L 207.40753,29.347221 211.65541,21.669369 H 214.29385 L 210.01959,29.241684 Z" />
    <path
       style="fill:#1d1d1b;stroke-width:2.63843703"
       inkscape:connector-curvature="0"
       id="path28"
       d="M 226.1932,37.658298 H 223.55476 V 27.10455 L 219.2805,37.658298 H 217.14337 V 21.669369 H 219.62349 V 32.223117 L 223.92414,21.669369 H 226.1932 Z" />
    <path
       style="fill:#1d1d1b;stroke-width:2.63843703"
       inkscape:connector-curvature="0"
       id="path30"
       d="M 239.06877,37.658298 H 236.43034 V 27.10455 L 232.18245,37.658298 H 229.88702 V 21.669369 H 232.52545 V 32.223117 L 236.8261,21.669369 H 239.0424 Z M 238.25086,16.313343 A 3.7465805,3.7465805 0 0 1 230.81046,16.313343 H 232.71014 A 2.0052121,2.0052121 0 0 0 233.36974,17.368718 1.8996746,1.8996746 0 0 0 234.53067,17.790867 1.926059,1.926059 0 0 0 235.71796,17.368718 1.8205215,1.8205215 0 0 0 236.35118,16.313343 Z" />
    <path
       style="fill:#1d1d1b;stroke-width:2.63843703"
       inkscape:connector-curvature="0"
       id="path32"
       d="M 81.422166,60.955697 H 78.942034 V 47.20944 H 75.274607 V 60.955697 H 72.63617 V 45.125075 H 81.290243 Z" />
    <path
       style="fill:#1d1d1b;stroke-width:2.63843703"
       inkscape:connector-curvature="0"
       id="path34"
       d="M 93.453438,60.955697 H 91.078844 V 59.53094 A 4.0368086,4.0368086 0 0 1 90.155392,60.612699 2.9022807,2.9022807 0 0 1 88.308486,61.193156 3.7465805,3.7465805 0 0 1 86.778193,60.929312 3.4299681,3.4299681 0 0 1 85.511742,60.005859 5.2768739,5.2768739 0 0 1 84.429983,56.417585 4.1159617,4.1159617 0 0 1 84.746596,54.465141 4.7228022,4.7228022 0 0 1 85.854739,52.802925 4.8811084,4.8811084 0 0 1 89.23194,51.747552 H 90.86777 V 49.109115 C 90.86777,47.57882 90.234544,46.813674 89.020864,46.813674 A 1.9788277,1.9788277 0 0 0 88.334871,46.945595 2.1107496,2.1107496 0 0 0 87.780799,47.341361 2.638437,2.638437 0 0 0 87.200342,49.214652 H 84.720211 A 4.2478835,4.2478835 0 0 1 84.984055,47.39413 4.8811084,4.8811084 0 0 1 85.933893,45.811068 4.8019553,4.8019553 0 0 1 92.134219,45.811068 4.9074928,4.9074928 0 0 1 93.110442,47.446899 4.564496,4.564496 0 0 1 93.40067,49.320188 Z M 90.973308,56.523122 V 53.541689 H 89.548551 A 2.638437,2.638437 0 0 0 87.754414,54.148528 3.0078181,3.0078181 0 0 0 87.06842,55.283057 2.8758963,2.8758963 0 0 0 86.936499,56.443968 C 86.936499,58.264491 87.569724,59.082405 88.862558,59.082405 A 1.7413684,1.7413684 0 0 0 89.680474,58.924099 1.7941371,1.7941371 0 0 0 90.313698,58.396412 2.8231276,2.8231276 0 0 0 90.894154,56.602275 Z" />
    <path
       style="fill:#1d1d1b;stroke-width:2.63843703"
       inkscape:connector-curvature="0"
       id="path36"
       d="M 105.88048,48.317584 A 34.616293,34.616293 0 0 1 106.11794,52.987617 34.009452,34.009452 0 0 1 105.88048,57.631265 4.8283398,4.8283398 0 0 1 104.95702,60.058628 3.4827368,3.4827368 0 0 1 102.89904,61.193156 3.4299681,3.4299681 0 0 1 100.57722,60.771005 3.8257336,3.8257336 0 0 1 99.653765,59.847553 V 66.944948 H 97.015328 V 44.993152 H 99.469075 V 46.206833 A 3.6146586,3.6146586 0 0 1 100.39253,45.230612 3.0342025,3.0342025 0 0 1 102.10751,44.729309 3.2188931,3.2188931 0 0 1 103.58504,45.019537 3.5355055,3.5355055 0 0 1 104.77233,45.916606 4.4853428,4.4853428 0 0 1 105.74856,48.317584 Z M 103.4795,56.707813 C 103.4795,55.942665 103.61142,54.7026 103.61142,52.987617 103.61142,51.272632 103.61142,50.032567 103.4795,49.267419 A 3.3244306,3.3244306 0 0 0 102.95181,47.631589 1.5302934,1.5302934 0 0 0 102.34497,47.156671 1.8996746,1.8996746 0 0 0 101.57982,46.998364 1.9788277,1.9788277 0 0 0 100.89383,46.998364 2.1899027,2.1899027 0 0 0 100.28699,47.39413 2.427362,2.427362 0 0 0 99.812071,48.23843 2.3745933,2.3745933 0 0 0 99.812071,49.188267 V 56.602275 A 2.638437,2.638437 0 0 0 99.812071,57.604881 2.7967432,2.7967432 0 0 0 100.28699,58.475565 2.0843652,2.0843652 0 0 0 100.89383,58.844946 1.9788277,1.9788277 0 0 0 101.57982,58.844946 1.6358309,1.6358309 0 0 0 102.95181,58.185337 3.2452775,3.2452775 0 0 0 103.4795,56.549506 Z" />
    <path
       style="fill:#1d1d1b;stroke-width:2.63843703"
       inkscape:connector-curvature="0"
       id="path38"
       d="M 111.97526,60.955697 H 109.33683 V 45.125075 H 111.97526 Z M 119.44204,60.955697 H 116.6453 L 112.05442,52.64462 116.3023,44.993152 H 118.94074 L 114.64009,52.64462 Z" />
    <path
       style="fill:#1d1d1b;stroke-width:2.63843703"
       inkscape:connector-curvature="0"
       id="path40"
       d="M 60.525745,50.560255 H 57.887308 A 27.360591,27.360591 0 0 1 54.114342,60.718236 27.809126,27.809126 0 0 1 36.938118,73.171659 27.307823,27.307823 0 0 1 26.094143,73.541041 V 41.879797 H 60.68405 V 15.706502 H 0 V 76.654396 H 60.68405 V 50.639408 H 60.49936 Z M 23.376551,72.986969 A 27.782742,27.782742 0 0 1 23.376551,19.242007 Z M 58.38861,18.081095 V 34.175561 A 30.579484,30.579484 0 0 0 42.214992,18.081095 Z M 57.386005,39.188591 H 26.014988 V 18.687935 A 27.729973,27.729973 0 0 1 57.386005,39.294129 Z M 2.3482089,18.081095 H 18.706518 A 30.658638,30.658638 0 0 0 2.3482089,34.544941 Z M 2.3482089,74.358956 V 57.684034 A 30.790559,30.790559 0 0 0 19.181436,74.358956 Z M 58.38861,74.358956 H 41.766458 A 30.632253,30.632253 0 0 0 58.38861,58.132568 Z" />
    <path
       style="stroke-width:2.63843703"
       inkscape:connector-curvature="0"
       id="path42"
       d="M 75.089917,76.786317 V 74.517262 H 75.986986 L 77.490895,76.786317 H 78.810113 L 76.910438,73.936807 78.704575,71.29837 H 77.385357 L 75.986986,73.488272 H 75.089917 V 71.29837 H 73.876235 V 76.839086 Z M 79.073957,74.14788 A 2.9550494,2.9550494 0 1 0 82.002622,71.113678 2.638437,2.638437 0 0 0 79.153109,74.015959 Z M 83.74399,74.14788 A 1.7413685,1.7413685 0 1 1 80.261253,74.14788 1.7413685,1.7413685 0 1 1 83.74399,74.14788 Z M 89.706858,71.245601 V 73.488272 H 87.226727 V 71.245601 H 86.039431 V 76.786317 H 87.226727 V 74.543646 H 89.706858 V 76.786317 H 90.894154 V 71.245601 Z M 97.886013,77.999999 V 75.730944 H 97.173634 V 71.245601 H 95.986338 V 75.730944 H 93.532591 V 71.245601 H 92.345295 V 76.786317 H 96.830638 V 77.999999 Z M 98.994155,71.245601 V 76.786317 H 102.95181 V 75.730944 H 100.26061 V 74.517262 H 102.74074 V 73.461887 H 100.26061 V 72.300976 H 102.89904 V 71.245601 Z M 105.53748,76.786317 V 72.327359 H 107.99123 V 76.786317 H 109.15214 V 71.245601 H 104.24465 V 76.786317 Z M 110.12836,71.245601 V 72.327359 H 111.84334 V 76.786317 H 113.00426 V 72.327359 H 114.71924 V 71.245601 Z M 115.00947,74.385341 V 75.335178 H 117.96452 V 74.385341 Z M 120.44465,76.786317 V 72.327359 H 122.89839 V 76.786317 H 124.00654 V 71.245601 H 119.15181 V 76.786317 Z M 125.56322,71.245601 V 76.786317 H 126.64498 V 74.965796 H 127.54204 C 128.86126,74.965796 129.91664,74.543646 129.91664,73.11889 129.91664,71.694135 128.86126,71.245601 127.54204,71.245601 Z M 128.80849,73.11889 C 128.80849,73.752115 128.30719,73.910421 127.70035,73.910421 H 126.64498 V 72.300976 H 127.59481 C 128.20165,72.300976 128.70296,72.459281 128.70296,73.11889 Z M 130.78732,74.015959 A 2.9550494,2.9550494 0 1 0 133.63683,71.113678 2.7703588,2.7703588 0 0 0 130.68178,74.015959 Z M 135.45735,74.015959 A 1.6358309,1.6358309 0 0 1 133.74237,75.810096 1.6622153,1.6622153 0 0 1 131.92185,74.015959 1.6358309,1.6358309 0 0 1 133.66322,72.248207 1.6094466,1.6094466 0 0 1 135.35182,74.015959 Z M 137.85833,71.245601 V 76.786317 H 141.68407 V 75.730944 H 139.04563 V 74.517262 H 141.49938 V 73.461887 H 139.04563 V 72.300976 H 141.68407 V 71.245601 Z M 144.19058,76.786317 V 74.517262 H 145.11403 L 146.61794,76.786317 H 147.75247 L 145.8528,73.936807 147.64693,71.29837 H 146.32772 L 144.92934,73.488272 H 144.03227 V 71.29837 H 142.84498 V 76.839086 Z M 148.28016,71.245601 V 72.327359 H 149.96876 V 76.786317 H 151.15605 V 72.327359 H 152.84465 V 71.245601 Z" />
  </g>
</svg>
